<svg width="24" height="24" viewBox="0 0 163 144" fill="none" xmlns="http://www.w3.org/2000/svg">
<path d="M28 35H134V111H28V35Z" fill="white"/>
<path d="M41 11H121V133H41V11Z" fill="white"/>
<path d="M113.71 52.1145L82.7524 34.241C82.3716 34.0209 81.9394 33.9049 81.4995 33.9049C81.0596 33.9049 80.6275 34.0209 80.2467 34.241L49.289 52.1145C48.9082 52.3341 48.5919 52.6499 48.3718 53.0304C48.1517 53.4108 48.0355 53.8425 48.0349 54.282V90.029C48.0349 90.9226 48.5138 91.7497 49.289 92.199L80.2467 110.072C81.0218 110.519 81.9748 110.519 82.7524 110.072L113.71 92.199C114.485 91.7521 114.962 90.9251 114.962 90.029V54.282C114.962 53.3859 114.485 52.5613 113.71 52.112V52.1145Z" fill="#8080F2"/>
<path d="M1.00596 68.3957L37.9971 4.04375C39.3401 1.71575 41.8236 0 44.5096 0H118.489C121.178 0 123.659 1.71575 125.004 4.04375L161.993 68.2549C162.653 69.4107 163 70.7185 163 72.0493C163 73.3802 162.653 74.688 161.993 75.8438L125.004 139.67C123.659 141.995 121.178 143.185 118.489 143.185H44.5096C41.8236 143.185 39.3401 142.032 37.9971 139.704L1.00843 75.7746C0.348243 74.6567 0 73.3822 0 72.0839C0 70.7856 0.348243 69.5111 1.00843 68.3932L1.00596 68.3957ZM31.6353 99.3385C31.6353 100.286 32.2055 101.16 33.0252 101.634L80.143 128.817C80.9626 129.291 81.9896 129.291 82.8092 128.817L129.962 101.634C130.781 101.16 131.354 100.286 131.354 99.3385V44.9701C131.354 44.0245 130.789 43.1481 129.971 42.6741L82.8512 15.4961C82.4458 15.2635 81.9866 15.1411 81.5193 15.1411C81.052 15.1411 80.5928 15.2635 80.1874 15.4961L33.0301 42.6766C32.2105 43.1506 31.6328 44.027 31.6328 44.9725V99.341L31.6353 99.3385Z" fill="#4B32C3"/>
<path d="M48 36H115V110H48V36Z" fill="white"/>
<path d="M80.6127 106.821C80.9075 106.917 81.2252 106.917 81.5199 106.821C98.422 101.31 109.777 86.1981 109.777 69.22V48.1864C109.777 47.8339 109.647 47.4938 109.412 47.2309C109.177 46.968 108.854 46.8007 108.504 46.7609C99.1681 46.0652 90.0649 43.5148 81.7267 39.2587C81.524 39.1486 81.297 39.0908 81.0663 39.0908C80.8356 39.0908 80.6086 39.1486 80.406 39.2587C72.068 43.5142 62.9654 46.0651 53.6302 46.7623C53.2797 46.8018 52.956 46.969 52.7209 47.2319C52.4858 47.4948 52.3557 47.8351 52.3554 48.1878V69.22C52.3554 86.1981 63.7106 101.31 80.6127 106.821ZM62.5679 64.3578C62.7475 63.8206 63.0733 63.344 63.5087 62.9817C63.9441 62.6193 64.4718 62.3855 65.0327 62.3064L74.0494 61.0144L78.3689 52.8978C78.6288 52.4079 79.0172 51.9981 79.4924 51.7122C79.9676 51.4263 80.5117 51.2753 81.0663 51.2753C81.6209 51.2753 82.165 51.4263 82.6402 51.7122C83.1154 51.9981 83.5038 52.4079 83.7637 52.8978L88.0833 61.0158L97.0999 62.3078C97.6615 62.3903 98.1893 62.6267 98.6248 62.9907C99.0604 63.3547 99.3867 63.8322 99.5676 64.3702C99.7484 64.9083 99.7769 65.4859 99.6497 66.0391C99.5225 66.5923 99.2447 67.0995 98.847 67.5045L92.2435 74.2257L93.8656 83.5567C93.968 84.1244 93.9079 84.7095 93.692 85.2444C93.4762 85.7793 93.1136 86.2423 92.6459 86.58C92.1783 86.9177 91.6247 87.1163 91.049 87.1529C90.4734 87.1894 89.8991 87.0625 89.3925 86.7867L81.0663 82.2432L72.7402 86.7867C72.2339 87.0621 71.6601 87.1889 71.0849 87.1524C70.5098 87.116 69.9566 86.9178 69.4891 86.5807C69.0216 86.2436 68.6589 85.7813 68.4427 85.2471C68.2265 84.7128 68.1656 84.1284 68.267 83.5611L69.8892 74.23L63.2857 67.5088C62.8847 67.1024 62.605 66.5922 62.4782 66.0355C62.3514 65.4788 62.3825 64.8978 62.5679 64.3578Z" fill="#39E3DD"/>
<path d="M46.6132 43.7264V69.2662C46.6132 89.3006 60.6141 107.262 80.66 112.948C80.9254 113.022 81.2057 113.022 81.4711 112.948C101.518 107.262 115.519 89.3006 115.519 69.2662V43.7264C115.524 43.1134 115.291 42.5224 114.871 42.0765C114.45 41.6307 113.873 41.3644 113.261 41.3334C96.484 40.6472 85.9859 35.2438 82.2535 32.9513C81.8967 32.7308 81.4856 32.614 81.0663 32.614C80.6469 32.614 80.2358 32.7308 79.8791 32.9513C76.1467 35.2481 65.6485 40.6472 48.8627 41.3334C48.2519 41.3662 47.6773 41.6333 47.2583 42.079C46.8393 42.5247 46.6083 43.1148 46.6132 43.7264ZM49.4843 48.1881C49.4757 47.1166 49.8704 46.0811 50.5901 45.2872C51.3097 44.4933 52.3017 43.9992 53.3689 43.903C62.3264 43.2429 71.0622 40.8027 79.0651 36.7253C79.6834 36.3947 80.3737 36.2217 81.0749 36.2217C81.776 36.2217 82.4663 36.3947 83.0846 36.7253C91.0875 40.8029 99.8234 43.243 108.781 43.903C109.84 44.0145 110.821 44.5135 111.535 45.3042C112.249 46.0949 112.645 47.1214 112.648 48.1867V69.2203C112.648 87.4517 100.496 103.659 82.4099 109.559C81.5363 109.84 80.5963 109.84 79.7226 109.559C61.6362 103.655 49.4843 87.4517 49.4843 69.2203V48.1881Z" fill="#39E3DD"/>
<path d="M72.8464 73.9903L71.0993 84.0535C71.0899 84.0912 71.0925 84.131 71.1066 84.1672C71.1208 84.2035 71.1458 84.2344 71.1783 84.2559C71.2044 84.2775 71.2368 84.2902 71.2707 84.292C71.3045 84.2938 71.3381 84.2847 71.3663 84.2659L80.3787 79.3477C80.5896 79.2326 80.826 79.1723 81.0663 79.1723C81.3066 79.1723 81.543 79.2326 81.7539 79.3477L90.7663 84.2659C90.7943 84.2853 90.828 84.2949 90.862 84.2931C90.8961 84.2913 90.9285 84.2782 90.9543 84.2559C90.9868 84.2344 91.0119 84.2035 91.026 84.1672C91.0401 84.131 91.0427 84.0912 91.0333 84.0535L89.2862 73.9903C89.2476 73.7654 89.2631 73.5345 89.3315 73.3168C89.3999 73.0991 89.5192 72.9009 89.6796 72.7385L96.7984 65.4876C96.8268 65.461 96.8464 65.4265 96.8546 65.3885C96.8628 65.3506 96.8592 65.311 96.8444 65.2751C96.836 65.2416 96.8179 65.2113 96.7923 65.1881C96.7668 65.1648 96.7349 65.1497 96.7008 65.1445L86.9621 63.752C86.7383 63.7202 86.5252 63.636 86.3401 63.5063C86.155 63.3766 86.0032 63.205 85.8969 63.0055L81.2357 54.2487C81.2208 54.2184 81.1977 54.1929 81.169 54.1751C81.1403 54.1573 81.1072 54.1478 81.0735 54.1478C81.0397 54.1478 81.0066 54.1573 80.978 54.1751C80.9493 54.1929 80.9262 54.2184 80.9113 54.2487L76.2501 63.0055C76.1438 63.205 75.992 63.3766 75.8069 63.5063C75.6218 63.636 75.4087 63.7202 75.1849 63.752L65.4462 65.1445C65.4107 65.1483 65.3773 65.1629 65.3504 65.1862C65.3234 65.2096 65.3043 65.2406 65.2954 65.2751C65.2803 65.3111 65.2768 65.3508 65.2852 65.3889C65.2937 65.427 65.3139 65.4614 65.3428 65.4876L72.453 72.7385C72.6134 72.9009 72.7327 73.0991 72.8011 73.3168C72.8695 73.5345 72.885 73.7654 72.8464 73.9903Z" fill="#39E3DD"/>
</svg>
