<svg version="1.1" id="Layer_1" xmlns="http://www.w3.org/2000/svg" xmlns:xlink="http://www.w3.org/1999/xlink" x="0px" y="0px"
	 viewBox="0 0 512 512" style="enable-background:new 0 0 512 512;" xml:space="preserve">
<style type="text/css">
	.st0{fill:#11100E;}
</style>
<g id="XMLID_1_">
	<path id="XMLID_2_" class="st0" d="M78.57,42.11c23.28-25.24,56.51-41.37,91.01-41.93c26.36-0.98,53.01,6.31,75.03,21.04
		c28.33,18.51,49.08,48.24,57.08,81.06c1.68,6.31,1.26,14.02,6.73,18.51c10.24,2.52,21.04,0.7,31.41,2.52
		c26.5,6.31,50.9,21.18,68.85,41.65c4.35,4.77,7.71,10.24,10.24,16.13c13.6,27.91,15.71,59.46,21.32,89.47
		c5.19,40.39,12.34,80.35,19.07,120.6c6.03,37.16,12.34,74.74,10.52,112.47c-8.41-3.09-15.71-9.54-18.51-18.09
		c-4.21-13.6-5.47-27.91-7.15-41.93c-0.7-5.89-5.61-11.64-11.92-10.94c-9.26-0.14-13.32,11.5-10.52,19.07
		c4.77,11.22,13.32,20.05,21.32,28.89c4.35,4.63,6.03,11.08,9.54,16.27c4.49,5.47,11.08,8.55,17.39,11.22
		c-2.24,1.4-4.07,3.93-7.15,3.51c-9.68,0.42-19.21,0-28.89,0.14c-11.78-0.14-23.84,1.4-35.48-1.12
		c-16.41-40.67-35.2-80.35-53.15-120.46c-8.83-20.05-17.67-40.11-26.92-60.16c-10.24-22.16-19.07-44.87-30.01-66.75
		c-1.68-7.71-6.17-14.16-9.12-21.32c-4.49-11.22-9.54-22.16-15.29-32.67c-28.61,53.43-56.09,107.56-83.72,161.55
		c-23.28,46.42-48.66,91.85-70.12,139.25c-21.74-0.14-43.47-0.7-65.21-0.84c56.37-106.02,111.07-213.02,166.46-319.59
		c4.91-9.54,10.1-18.79,13.88-28.89c-10.66,3.09-20.47,9.12-31.55,10.8c-23,4.63-46.42-0.28-68.01-8.55
		c27.07-24.96,65.77-34.22,101.95-32.39c-3.09-9.68-7.43-19.07-13.74-27.07c7.43-13.6,19.49-23.56,31.27-33.38
		c-16.97-1.96-31.41,9.4-41.79,21.46c-6.45-4.35-13.32-8.27-20.33-11.5c1.12-12.34,6.59-23.42,12.34-34.22
		c-13.74,3.23-21.74,16.41-25.8,29.03c-8.55-1.26-17.25-1.4-25.94-0.84c-1.54-9.68-1.54-19.63-0.7-29.31
		c-10.8,6.45-10.38,20.75-10.52,31.83c-8.13,2.94-15.85,6.73-23.14,11.22c-4.35-6.73-7.57-14.02-10.8-21.32
		c-5.33,9.4-1.26,20.47,2.52,29.73c-4.35,6.45-8.41,13.04-11.92,20.05c-5.75-2.94-11.22-6.03-16.83-9.12
		c1.54,7.99,6.73,14.44,13.6,18.79c-1.82,8.41-2.66,16.97-2.66,25.52c-5.75,0.56-11.5,0.84-17.25,1.4
		c4.63,5.05,11.5,6.17,17.95,6.73c1.68,6.87,3.65,13.74,6.17,20.33c-3.51,3.51-7.15,6.87-10.52,10.52c4.91-0.7,9.68-1.96,14.3-3.37
		c6.03,5.61,13.46,9.4,20.47,13.46c-0.28,1.68-1.12,5.05-1.4,6.59c2.38-1.54,4.77-3.09,7.15-4.63c13.46,3.93,28.05,5.75,41.51,1.12
		c8.27-2.66,15.01-8.55,23.14-11.36c-3.09,14.3-15.01,24.96-27.77,31.13c-18.51,8.83-40.11,6.31-58.76-0.7
		c-12.76-3.65-23.14-12.76-31.55-22.72c-13.6-15.43-22.72-35.06-24.26-55.81C39.58,106.9,53.47,69.31,78.57,42.11z M350.76,244.6
		c-1.4,6.87-1.12,14.3,1.26,21.04c6.03,16.83,23.84,24.54,38.56,32.11c-1.12-3.65-2.1-7.43-3.23-11.08
		c-19.07-1.96-29.87-29.17-15.01-42.49c-1.82-4.35-3.65-8.55-5.47-12.9C360.58,234.37,352.87,237.31,350.76,244.6z M375.58,256.24
		c-1.54,7.71,0,17.39,8.69,20.05C382.18,269.43,380.63,261.71,375.58,256.24z"/>
</g>
</svg>
