<svg xmlns:svg="http://www.w3.org/2000/svg" xmlns="http://www.w3.org/2000/svg" width="1093" height="977" version="1">
  <g transform="translate(183.79242,-1.1577341)">
    <path fill="#61dafb" d="m144 1c-20 0-39 5-56 15-21 13-37 34-46 56-11 27-15 57-16 86-1 50 7 99 19 147-22 7-44 14-66 22-36 15-72 32-103 57-22 18-43 41-53 68-9 23-9 48-1 71 7 21 21 40 37 55 20 19 42 34 66 47 38 20 78 35 120 47-12 51-21 103-19 155 1 26 5 53 16 77 8 19 20 37 36 49 16 13 35 20 55 22 22 2 45-2 66-9 24-8 47-20 69-34 35-22 67-49 97-78 30 29 61 55 96 77 29 18 60 34 94 41 21 4 43 4 64-3 18-6 35-17 47-31 15-17 24-38 29-60 7-27 9-55 8-83-2-42-9-84-19-124 46-13 92-30 134-55 27-16 52-35 70-60 15-20 25-43 25-68 0-23-8-46-21-64-18-27-44-47-71-64-42-25-89-43-136-57 13-51 21-104 19-156-1-26-6-53-16-77-8-19-20-37-37-49-16-12-36-19-56-21-21-2-42 2-62 9-25 8-48 21-70 35-34 22-66 49-95 77-32-31-66-59-103-82-28-17-59-32-93-37-8-1-15-2-23-2zm2 47c15 0 29 4 43 9 35 13 65 34 94 57 16 13 32 27 47 42-34 36-64 75-93 115-49 5-99 12-147 23-7-29-13-58-16-87-3-27-3-54 1-80 3-16 7-33 16-47 8-14 21-25 36-29 7-2 13-2 20-2zm435 0c11 0 21 2 31 7 15 8 25 23 31 38 9 22 11 47 11 71 0 44-7 88-18 130-48-11-98-18-147-23-29-40-59-79-93-115 29-28 61-55 96-77 22-13 45-24 70-29 6-1 13-2 19-2zM363 189c23 25 44 51 65 77-43-2-86-2-129 0 20-27 42-53 65-77zm0 123c33 0 67 1 100 4 38 55 71 114 101 174-29 60-62 119-101 174-66 5-133 5-199 0-38-55-72-114-101-174 29-60 63-119 101-174 33-2 67-4 100-4zm-160 10c-23 37-45 74-65 113-13-31-25-63-35-95 33-8 67-13 100-17zm320 0c34 4 67 10 100 18-10 32-22 64-35 96-20-38-42-76-65-113zm-466 29c15 47 33 94 54 139-21 45-39 92-54 139-45-13-89-29-129-54-19-12-38-27-52-46-10-14-16-32-13-49 4-21 19-39 35-53 27-23 59-39 91-53 22-9 45-17 68-23zm611 0c43 12 85 28 123 50 19 11 37 24 51 40 11 12 20 28 21 44 1 16-5 31-14 44-12 17-29 31-46 42-41 27-87 44-134 57-15-47-33-94-54-139 21-45 39-91 54-139zm-80 194c13 31 25 63 35 96-33 8-67 13-100 18 24-37 45-74 65-113zm-450 0c20 39 42 76 65 113-34-4-67-10-100-17 10-32 22-64 35-96zm498 141c10 39 17 78 18 118 1 25-1 50-8 74-5 16-13 32-27 43-13 10-29 13-44 11-24-2-46-11-67-22-41-22-77-53-111-85 33-35 63-72 90-111 1-1 2-4 4-4 49-5 98-12 146-23zm-546 0c49 11 98 18 147 23 29 40 60 79 93 116-30 29-62 56-97 78-22 13-45 24-70 29-16 3-34 2-49-6-15-8-25-23-31-39-8-22-11-46-11-70 0-44 8-87 18-129zm208 27c43 2 86 2 130 0-20 27-42 53-65 78-23-25-44-51-65-77z"/>
    <path fill="#61dafb" d="m354 392c19-2 38 2 55 11 20 11 36 28 44 49 10 24 10 52 0 76-13 33-45 57-80 60-21 2-44-3-62-14-20-12-35-32-42-54-8-24-5-51 6-74 15-30 46-51 79-53z"/>
  </g>
</svg>